<svg width="509" height="96.00000000000001" xmlns="http://www.w3.org/2000/svg">

 <g>
  <title>background</title>
  <rect fill="none" id="canvas_background" height="98" width="511" y="-1" x="-1"/>
 </g>
 <g>
  <title>Layer 1</title>
  <g stroke="null" id="svgg">
   <path fill-rule="evenodd" fill="green" d="m484.249443,6.967931c-0.27223,0.089 -1.31636,0.313 -2.31936,0.496c-3.26307,0.596 -5.81594,1.935 -6.73546,3.531c-0.65334,1.135 -0.83603,4.183 -0.83603,13.969c0,11.126 0.2323,10.421 -3.56918,10.84c-3.61757,0.398 -3.4869,0.678 -3.49537,-7.474c-0.00605,-4.883 -0.07501,-6.559 -0.30489,-7.463c-0.16334,-0.642 -0.48033,-1.992 -0.70658,-3c-0.54324,-2.432 -1.3708,-3.832 -3.24492,-5.491c-4.09064,-3.62 -8.04456,-2.895 -12.20901,2.241c-2.41615,2.98 -2.51778,3.673 -0.91346,6.25c1.85597,2.979 1.90799,3.249 2.00841,10.25c0.05808,4.128 0.00726,6.672 -0.1597,7.916c-0.41499,3.104 -0.47549,10.843 -0.10647,13.786c0.25287,2.022 0.32062,4.679 0.32788,12.881c0.00847,11.115 -0.00242,10.987 1.07075,12.15c1.0768,1.167 1.94067,1.35 6.38096,1.35c5.18075,0 6.31442,-0.366 7.43599,-2.405c0.50815,-0.925 0.59768,-16.514 0.11373,-20.141c-0.50453,-3.788 -0.26739,-4.222 2.7283,-4.99c3.10337,-0.795 4.88191,-0.533 4.83714,0.711c-0.00968,0.271 -0.06049,5.029 -0.11373,10.575l-0.098,10.083l0.50452,1.635c1.11673,3.617 1.55834,3.836 7.90059,3.923c4.80931,0.066 5.04524,0.033 6.22125,-0.868l0.51541,-0.395l0,-34.452l0,-34.452l-0.56501,-0.467c-1.24498,-1.028 -3.25703,-1.455 -4.66776,-0.989m-466.52153,0.488c-3.07918,0.876 -5.62236,2.396 -7.21821,4.314c-0.8203,0.984 -3.1687,4.789 -3.1687,5.132c0,0.146 -0.2323,0.672 -0.51662,1.168l-0.51663,0.902l0.06292,4.285c0.06049,4.152 0.07743,4.3 0.51662,4.762c0.24924,0.262 0.45371,0.54 0.45371,0.618c0,0.384 2.94608,4.644 3.59337,5.196c2.12699,1.814 5.30658,2.08 7.61747,0.637c1.84629,-1.152 1.97696,-1.516 2.1282,-5.937c0.21294,-6.235 1.55592,-8.632 4.20437,-7.5c2.79,1.193 4.9678,8.734 3.5849,12.417c-0.84934,2.265 -2.42946,3.585 -4.78391,3.998c-3.11667,0.547 -3.33808,0.968 -3.33808,6.335c0,5.227 0.08832,5.427 2.82509,6.423c4.79601,1.746 7.05366,8.243 4.82383,13.884c-2.99206,7.572 -7.32588,3.998 -7.34403,-6.057c-0.00726,-3.881 -0.21899,-4.525 -1.85718,-5.634c-2.84808,-1.929 -5.79901,-2.084 -7.76508,-0.406c-1.199,1.022 -3.42762,3.821 -3.69379,4.64c-0.12583,0.386 -0.40289,0.97 -0.61584,1.298c-0.57469,0.887 -0.58558,7.721 -0.01451,8.758c0.20568,0.373 0.7586,1.578 1.22803,2.678c2.16208,5.059 5.76029,8.401 11.86298,11.019c1.47243,0.631 2.87954,1.24 3.12635,1.353c0.65939,0.303 3.14451,0.265 3.87649,-0.058c0.33272,-0.147 1.08769,-0.406 1.67691,-0.577c1.7737,-0.513 7.80137,-3.768 9.13709,-4.933c1.76886,-1.544 3.6454,-4.18 4.64598,-6.525c0.33998,-0.795 0.89411,-1.896 1.23288,-2.446c0.33876,-0.55 0.81788,-1.522 1.0647,-2.16l0.44887,-1.161l0.43677,1.244c0.24077,0.684 0.64971,1.806 0.90984,2.494c0.26133,0.687 0.57953,1.622 0.70778,2.078c1.33814,4.723 8.0615,10.853 12.60827,11.495c0.44403,0.062 1.07922,0.19 1.41194,0.284c1.79789,0.507 8.92536,-3.755 11.42862,-6.835c2.04713,-2.519 2.63756,-2.482 3.60547,0.228c0.81063,2.267 4.15961,5.437 6.65803,6.303l1.32483,0.459l1.36717,-0.507c4.03015,-1.495 8.08691,-6.905 9.00038,-12.005c0.12341,-0.688 0.61946,-2.579 1.10342,-4.204c0.81425,-2.731 0.88927,-3.175 1.01025,-5.916c0.09438,-2.171 0.2444,-3.342 0.55776,-4.38c0.40169,-1.332 0.43435,-1.967 0.53599,-10.584c0.12098,-10.272 0.08469,-10.025 1.5293,-10.419c1.43856,-0.392 2.70652,0.156 3.1203,1.35c0.12341,0.355 0.19722,8.27 0.19722,21.173c0,22.615 -0.07139,21.313 1.2111,22.206c1.09979,0.764 2.30847,0.94 6.45718,0.94c5.88127,0 7.46865,-0.78 7.12141,-3.5c-0.48637,-3.808 -0.11131,-13.333 0.52509,-13.333c0.27949,0 1.4313,2.288 1.64908,3.275c1.01026,4.598 2.00721,7.078 3.47481,8.642c0.51541,0.55 1.4313,1.572 2.03382,2.272c0.60374,0.7 1.48817,1.533 1.96487,1.851c1.60552,1.068 4.02409,2.322 4.97022,2.577c0.51784,0.139 1.30911,0.395 1.76039,0.568c4.26608,1.64 16.66745,-7.547 16.71343,-12.381c0.02419,-2.488 -2.42704,-3.253 -5.67681,-1.771c-1.57285,0.717 -1.57285,0.717 -3.69016,0.717c-4.5383,0 -6.77055,-1.965 -7.00285,-6.167c-0.19358,-3.489 0.11736,-3.781 4.1838,-3.928c5.51831,-0.199 7.18796,-2.091 5.81595,-6.593c-0.52147,-1.714 -2.96061,-3.093 -6.02163,-3.405c-3.20258,-0.325 -3.83777,-0.88 -3.98901,-3.484c-0.18632,-3.192 -0.08832,-3.256 4.9787,-3.256c5.23883,0 6.80926,-0.682 9.76261,-4.239c1.64424,-1.981 2.33508,-1.832 3.22072,0.691c0.41984,1.195 0.4283,1.508 0.53598,20.136l0.1101,18.921l0.50937,0.829c0.87959,1.434 1.45308,1.572 6.60721,1.585c5.21583,0.014 5.58364,-0.084 6.59632,-1.757l0.60494,-1l0.10043,-7.666c0.12461,-9.484 -0.1343,-8.918 4.0737,-8.916c4.26123,0.001 4.08095,-0.402 4.01199,9.011c-0.07864,10.723 -0.30973,10.396 7.3404,10.402c7.26055,0.005 7.01253,0.305 7.17707,-8.664c0.11252,-6.107 0.28917,-8.03 0.77554,-8.464c0.25287,-0.225 1.39622,2.471 1.73135,4.085c1.20989,5.816 4.72584,10.266 10.55146,13.354c1.29216,0.684 2.74161,1.33 3.22072,1.436c0.47912,0.105 1.15908,0.337 1.51237,0.515c0.51783,0.261 1.01751,0.323 2.594,0.323l1.95397,0.001l3.18806,-1.358c5.04888,-2.15 6.9847,-3.51 9.69001,-6.809c1.63941,-1.998 2.17902,-1.993 2.69806,0.029c0.71867,2.801 7.07181,7.971 9.79527,7.971c1.45913,0 6.86976,-3.642 7.72515,-5.201c0.57107,-1.04 0.51783,-1.289 -0.71263,-3.279c-1.3212,-2.136 -1.50389,-2.881 -1.5051,-6.126c-0.00121,-1.703 -0.11373,-2.807 -0.40531,-3.977c-0.48396,-1.947 -0.6231,-22.763 -0.16939,-25.576c0.35087,-2.184 -0.78885,-4.053 -3.02593,-4.962c-1.47728,-0.599 -7.04035,-0.702 -8.73662,-0.162c-1.15182,0.368 -2.48027,1.515 -2.76944,2.392c-0.21778,0.66 -0.48758,11.336 -0.4162,16.5c0.06775,4.955 -0.32062,5.152 -3.22678,1.641c-3.00294,-3.629 -8.55997,-6.302 -13.89075,-6.682c-3.56796,-0.255 -3.52925,-0.182 -3.65749,-6.984c-0.14761,-7.817 -0.54324,-8.198 -8.34341,-8.05c-5.49774,0.104 -7.31257,1.273 -6.49469,4.185c0.56986,2.03 0.45008,6.657 -0.21173,8.159c-0.74045,1.681 -0.77312,2.068 -0.27706,3.285c0.29037,0.713 0.392,1.255 0.30731,1.629c-0.20326,0.896 -0.95944,2.402 -1.13246,2.257c-0.40652,-0.338 -0.60252,-2.461 -0.36901,-3.993c0.12945,-0.853 0.16575,-1.72 0.08106,-1.928c-0.0859,-0.208 -0.21052,-2.9 -0.27707,-5.983l-0.12098,-5.605l-0.75982,-0.912c-1.37927,-1.653 -2.12456,-1.867 -6.72457,-1.932c-7.33677,-0.103 -7.19037,-0.303 -7.11899,9.706c0.06171,8.771 0.29037,8.291 -3.78091,7.95c-4.38464,-0.367 -4.17291,-0.004 -4.30478,-7.405l-0.10526,-5.863l-0.54446,-1.059c-3.12272,-6.068 -8.66402,-8.503 -13.26886,-5.83c-1.8959,1.1 -2.47665,1.162 -4.53225,0.481c-3.24371,-1.073 -5.30779,-1.477 -8.19096,-1.602c-1.54986,-0.067 -3.33687,-0.255 -4.20678,-0.441c-0.88564,-0.189 -2.7646,-0.383 -4.53709,-0.468c-1.96486,-0.095 -3.58975,-0.271 -4.63751,-0.505c-3.24493,-0.723 -5.37917,-0.38 -7.609,1.222c-1.33451,0.958 -1.39621,0.946 -2.37864,-0.473c-1.60069,-2.313 -7.6949,-5.037 -12.30217,-5.498c-0.60615,-0.061 -2.03382,-0.295 -3.17233,-0.52c-2.94971,-0.583 -13.12247,-0.546 -14.46423,0.052c-2.52988,1.128 -2.60248,1.366 -2.73436,8.891c-0.10284,5.814 -0.15244,6.542 -0.5384,7.75c-0.33514,1.053 -0.45129,2.053 -0.5505,4.768c-0.08953,2.455 -0.2323,3.809 -0.50089,4.75c-0.20568,0.723 -0.43556,2.327 -0.51058,3.565c-0.08348,1.394 -0.28795,2.711 -0.53598,3.462c-0.2202,0.666 -0.47911,2.129 -0.57469,3.25c-0.19722,2.3 -1.45429,6.753 -2.32057,8.215c-0.84088,1.422 -1.41437,1.48 -3.37802,0.345c-1.51962,-0.878 -2.42825,-0.886 -4.66291,-0.04c-6.93509,2.624 -11.02694,-0.668 -10.55992,-8.494c0.16938,-2.828 0.33514,-2.959 3.89463,-3.071c4.70043,-0.149 5.73125,-1.112 5.73125,-5.358c0,-4.05 -0.89048,-5.015 -5.10452,-5.534c-3.95635,-0.486 -4.47418,-1.078 -4.47418,-5.108c0,-3.897 0.28554,-4.301 2.71499,-3.845c4.90369,0.921 6.32531,0.605 9.52184,-2.118c3.07433,-2.619 3.92125,-4.415 3.74703,-7.954c-0.16455,-3.346 -1.90558,-5.016 -6.30474,-6.048c-2.3617,-0.555 -5.76512,-1.191 -7.31015,-1.367c-0.80337,-0.092 -2.11731,-0.317 -2.91947,-0.501c-0.80216,-0.184 -1.74466,-0.334 -2.09553,-0.334c-0.34966,0 -1.52567,-0.191 -2.61215,-0.424c-8.15829,-1.752 -10.16429,-0.824 -10.16671,4.704c-0.00121,2.946 -0.41862,6.22 -0.79248,6.22c-0.18995,0 -1.68053,-3.486 -2.03019,-4.75c-1.74345,-6.304 -10.19454,-12.821 -17.95235,-13.843c-3.71315,-0.49 -4.31205,-0.481 -6.34587,0.099m253.82889,7.997c-3.35018,1.384 -4.63992,3.714 -4.40521,7.955l0.14035,2.553l-0.6981,0.578c-1.85477,1.532 -3.17718,0.244 -2.43309,-2.37c0.77433,-2.721 0.05444,-4.913 -2.23467,-6.805c-3.06223,-2.531 -5.47354,-2.519 -8.48375,0.043c-3.62604,3.086 -3.21468,6.837 1.25466,11.473c1.80757,1.874 1.689,2.317 -0.56865,2.143c-2.8505,-0.22 -6.20674,0.957 -9.01005,3.158c-1.97092,1.547 -2.0181,2.1 -0.36176,4.148c2.21531,2.738 2.02293,1.159 2.10763,17.288c0.05081,9.89 0,15.003 -0.17302,17.174c-0.28069,3.534 -0.21778,3.756 1.47365,5.273c1.43856,1.29 2.01326,1.448 5.48927,1.509c6.4959,0.115 8.30469,-0.598 9.70211,-3.818c0.29158,-0.672 0.67028,-1.447 0.84208,-1.722c0.17181,-0.275 0.74046,-1.4 1.26434,-2.5c4.43183,-9.301 4.65203,-9.331 4.84561,-0.666c0.18632,8.359 0.1718,8.343 7.52067,8.586c5.32715,0.175 6.13294,-0.047 7.25572,-2.003l0.43072,-0.75l0.05444,-20.488c0.0605,-22.819 0.12704,-21.627 -1.29458,-22.836c-1.32725,-1.131 -1.90558,-1.252 -6.0059,-1.256c-5.92241,-0.006 -6.39184,0.365 -9.27864,7.318c-0.85419,2.056 -1.71442,4.006 -1.91405,4.334c-0.19842,0.327 -0.83603,1.682 -1.41557,3.011c-1.21352,2.782 -1.87533,3.834 -2.41494,3.834c-0.61704,0 -0.6727,-0.378 -0.83845,-5.75c-0.08712,-2.842 -0.21416,-5.43 -0.28191,-5.75c-0.27101,-1.29 -1.36959,-3.668 -2.21047,-4.784c-0.86991,-1.156 -0.98969,-1.393 -0.94129,-1.864c0.02903,-0.274 1.91888,-0.162 4.01925,0.238c2.10884,0.402 4.84561,0.145 8.3059,-0.779c3.98054,-1.064 8.18248,-5.279 8.8939,-8.923c0.96428,-4.934 -4.14871,-9.405 -8.6362,-7.552m156.92638,0.174c-5.45539,1.103 -13.37412,7.526 -15.74793,12.775c-0.2819,0.622 -0.86749,1.679 -1.30184,2.348c-0.43435,0.669 -0.92798,1.659 -1.09737,2.199c-0.44403,1.416 -1.92977,4.514 -2.11731,4.418c-0.196,-0.1 -0.5384,-1.726 -0.71988,-3.417c-0.98727,-9.188 -11.10679,-14.578 -21.78649,-11.605c-4.9424,1.375 -7.63199,2.936 -11.67302,6.771c-2.06045,1.955 -2.05682,1.955 -2.74403,0.274c-1.29822,-3.175 -4.71978,-4.182 -10.16187,-2.989c-0.88806,0.195 -2.56618,0.405 -3.7313,0.469c-1.16392,0.063 -2.86865,0.26 -3.78817,0.438c-1.13971,0.221 -2.90373,0.365 -5.54492,0.453c-6.39911,0.214 -7.97318,1.366 -8.3918,6.149c-0.30005,3.423 -0.57833,3.713 -1.76523,1.846c-2.62062,-4.122 -10.11952,-8.072 -14.38681,-7.578c-3.43608,0.398 -6.32046,1.233 -8.88543,2.572c-1.43735,0.751 -7.33314,5.581 -8.38212,6.867c-1.99511,2.448 -4.41489,7.719 -5.01015,10.916c-0.15366,0.825 -0.41983,1.988 -0.59285,2.584c-0.4779,1.657 -0.43798,6.822 0.06655,8.583c0.21052,0.733 0.48516,1.896 0.61099,2.583c0.46581,2.564 2.98117,7.818 4.93151,10.303c3.07917,3.923 9.13588,7.93 13.02689,8.617c0.38837,0.069 1.02236,0.265 1.40952,0.436c1.30426,0.578 2.05077,0.438 5.56187,-1.044c6.16318,-2.6 10.01668,-5.877 11.80489,-10.036c1.27523,-2.967 1.94793,-2.896 3.49538,0.368c1.78942,3.773 4.41731,6.497 8.3797,8.682c3.93214,2.17 4.37133,2.341 6.00952,2.341c3.4869,0 10.20663,-4.227 13.17207,-8.285c1.47002,-2.012 2.21652,-2.045 3.49417,-0.156c2.18627,3.232 6.94719,6.368 11.402,7.512c0.60979,0.157 1.43977,0.43 1.84266,0.607c1.02478,0.45 4.42215,0.464 5.31626,0.022c0.33272,-0.164 1.01268,-0.396 1.51236,-0.514c0.49848,-0.119 1.31878,-0.431 1.82089,-0.695c0.5021,-0.263 1.72288,-0.788 2.71257,-1.166c2.10037,-0.802 4.33746,-2.457 5.95871,-4.408c0.53356,-0.642 1.3817,-1.615 1.8838,-2.162c0.9171,-1 2.34477,-4.018 2.34477,-4.958c0,-0.684 0.57953,-2.06 1.00058,-2.375c0.56743,-0.424 1.24981,-0.025 1.74708,1.021c0.63882,1.344 3.28243,5.724 3.94666,6.537c0.79853,0.978 5.7252,5.13 7.31983,6.17c2.27702,1.485 5.309,2.646 6.18617,2.37c0.2686,-0.084 1.11915,-0.201 1.88985,-0.26c2.46092,-0.188 2.65934,-0.25 5.15292,-1.611c2.93157,-1.601 6.70521,-4.627 7.84372,-6.288c0.38838,-0.567 1.23772,-1.783 1.88743,-2.703c1.37201,-1.942 3.1929,-6.176 3.64661,-8.481c0.15486,-0.785 0.46218,-2.027 0.68359,-2.76c0.22141,-0.734 0.45975,-2.046 0.52993,-2.917c0.08953,-1.127 0.31215,-2.04 0.77191,-3.167l0.64608,-1.583l-0.00726,-5.25l-0.00605,-5.25l-0.65818,-1.56c-0.51904,-1.231 -0.69327,-1.986 -0.8324,-3.583c-0.0968,-1.113 -0.2807,-2.249 -0.40895,-2.524c-0.12946,-0.275 -0.44887,-1.252 -0.71262,-2.171c-2.04835,-7.151 -6.79233,-12.692 -13.20353,-15.419c-1.0272,-0.437 -4.81779,-0.626 -6.35193,-0.316m1.50632,12.07c1.4434,0.617 3.31873,5.259 3.73977,9.253c0.07138,0.688 0.31941,1.887 0.54929,2.667c0.65455,2.219 0.63761,16.053 -0.02299,18.127c-0.24077,0.758 -0.52388,2.108 -0.62914,3c-0.49969,4.263 -3.12031,8.706 -5.13357,8.706c-2.14029,0 -4.65565,-6.052 -4.95329,-11.917c-0.10526,-2.083 -0.26254,-3.208 -0.59163,-4.25c-0.58559,-1.851 -0.53961,-8.96 0.06654,-10.416c0.22262,-0.535 0.38354,-1.58 0.44766,-2.917c0.11615,-2.41 0.91105,-5.725 2.05197,-8.559c1.31636,-3.271 2.73194,-4.439 4.47539,-3.694m-40.34258,5.933c3.30663,1.667 3.84624,7.244 1.01389,10.476c-0.47428,0.541 -1.0151,0.852 -2.49238,1.435c-3.49658,1.377 -4.5516,2.713 -4.5516,5.763c0,3.102 1.08527,4.443 4.23219,5.234c5.11058,1.284 5.99017,11.62 1.16392,13.683c-2.47907,1.059 -4.97628,-2.696 -4.98838,-7.502c-0.00605,-2.002 -0.28069,-2.675 -1.50994,-3.695c-3.24614,-2.694 -8.11715,-0.965 -11.10679,3.942c-0.89411,1.466 -1.4918,2.022 -3.19653,2.971c-6.7403,3.756 -12.26103,2.49 -13.03052,-2.987c-0.51783,-3.683 0.29521,-4.833 3.41552,-4.833c4.53467,0 6.36765,-1.492 6.36765,-5.18c0,-3.901 -1.65271,-4.96 -6.85524,-4.394c-2.09915,0.229 -2.92309,-0.798 -2.9243,-3.643c0,-3.111 0.29037,-3.351 4.23825,-3.498c3.87285,-0.145 5.87764,-0.9 8.53456,-3.217c2.01568,-1.757 2.34114,-1.674 2.72104,0.689c0.45008,2.807 1.78822,5.336 3.3151,6.266c5.14203,3.133 9.71058,0.947 10.04693,-4.809c0.16091,-2.737 0.28795,-3.214 1.29579,-4.881c1.16634,-1.927 2.76218,-2.6 4.31084,-1.82m-345.12479,2.748c0.42225,1.025 0.27949,15.767 -0.15728,16.318l-0.38233,0.482l-0.4404,-0.424c-0.24198,-0.233 -0.82393,-1.173 -1.29095,-2.088c-0.65939,-1.293 -1.16997,-1.977 -2.28306,-3.065c-2.53472,-2.477 -2.58796,-3.271 -0.36418,-5.524c0.58438,-0.59 1.69142,-2.129 2.55166,-3.544c0.83603,-1.375 1.56559,-2.56 1.62125,-2.633c0.1839,-0.247 0.54203,-0.017 0.74529,0.478m279.60803,3.214c1.12641,0.68 1.45187,1.52 1.61883,4.172c0.20084,3.201 0.73562,4.207 2.69201,5.065c2.84203,1.247 6.5939,-0.2 9.298,-3.587c1.80637,-2.261 1.96003,-1.626 2.06892,8.541c0.12703,11.82 0.11736,11.872 -2.3484,12.285c-0.82636,0.138 -2.15844,0.597 -3.72767,1.284c-8.01431,3.509 -13.6887,1.43 -15.9645,-5.848c-0.28191,-0.901 -0.64366,-2.007 -0.80458,-2.459c-0.43072,-1.209 -0.42467,-11.459 0.00847,-12.767c0.16455,-0.501 0.48517,-1.542 0.71142,-2.314c1.07438,-3.669 4.15355,-5.758 6.4475,-4.372m83.47274,4.108c-0.00242,0.642 -0.13551,1.617 -0.29642,2.167c-0.19117,0.652 -0.2928,1.913 -0.29522,3.63c-0.00484,4.332 -0.41015,4.625 -3.21588,2.328c-2.63031,-2.153 -2.715,-2.616 -0.72715,-3.962c1.2111,-0.82 1.89469,-1.665 2.69806,-3.332c1.32725,-2.754 1.84387,-2.988 1.83661,-0.831m-197.38753,13.125c2.51416,1.595 3.75187,6.784 2.57828,10.806c-1.22925,4.213 -3.81357,4.522 -5.65261,0.676c-0.48032,-1.004 -0.80215,-7.97 -0.47064,-10.167c0.27343,-1.803 1.85234,-2.389 3.54497,-1.315" id="path0"/>
  </g>
 </g>
</svg>